/* XPM */
static char *a93c74ee4f294f24af573eceeaea28583pfHVWOuQ0JKVQva[] = {
/* columns rows colors chars-per-pixel */
"32 32 186 2 ",
"   c #151B29",
".  c #3C1D2C",
"X  c #1B2B2D",
"o  c #0D382F",
"O  c #1C392F",
"+  c #06262D",
"@  c #2A262E",
"#  c #3E2D2D",
"$  c #28352E",
"%  c #3D2635",
"&  c #233032",
"*  c #2C3430",
"=  c #421E35",
"-  c #4D1F39",
";  c #68152B",
":  c #611F3C",
">  c #731A2B",
",  c #452A2F",
"<  c #5B242D",
"1  c #582A38",
"2  c #4C2437",
"3  c #6E242F",
"4  c #67202E",
"5  c #77232D",
"6  c #672D32",
"7  c #67283B",
"8  c #792533",
"9  c #722C3D",
"0  c #753433",
"q  c #0F462F",
"w  c #16532F",
"e  c #0E4031",
"r  c #1E4332",
"t  c #195634",
"y  c #17462D",
"u  c #2F532E",
"i  c #294936",
"p  c #275935",
"a  c #365438",
"s  c #384237",
"d  c #1D6536",
"f  c #266437",
"g  c #256539",
"h  c #256B3B",
"j  c #2B6F3A",
"k  c #2A6B36",
"l  c #396636",
"z  c #24723A",
"x  c #347C39",
"c  c #3A7C37",
"v  c #4C4E3C",
"b  c #436934",
"n  c #526E38",
"m  c #4D7635",
"M  c #5B783C",
"N  c #6E2841",
"B  c #722941",
"V  c #3E5A41",
"C  c #534A43",
"Z  c #475D42",
"A  c #555D42",
"S  c #595846",
"D  c #4B6745",
"F  c #536845",
"G  c #577546",
"H  c #64774D",
"J  c #647E4F",
"K  c #667E50",
"L  c #811C2D",
"P  c #951C2B",
"I  c #AE1E30",
"U  c #B51D30",
"Y  c #A71B2D",
"T  c #94242F",
"R  c #96322E",
"E  c #832332",
"W  c #8B2130",
"Q  c #9B2536",
"!  c #843133",
"~  c #963332",
"^  c #A6232F",
"/  c #AE2A2F",
"(  c #B62A2F",
")  c #AC382F",
"_  c #BA362E",
"`  c #A52530",
"'  c #AB2430",
"]  c #AF2E32",
"[  c #B32230",
"{  c #BC2630",
"}  c #BC2A31",
"|  c #AC3433",
" . c #B73030",
".. c #C81F30",
"X. c #C6282F",
"o. c #C6382E",
"O. c #D13B2F",
"+. c #C32231",
"@. c #CB2231",
"#. c #C52C31",
"$. c #CE2E32",
"%. c #DC2534",
"&. c #D42C34",
"*. c #DC2C34",
"=. c #D32332",
"-. c #CE3030",
";. c #D33D31",
":. c #DA3437",
">. c #E02A35",
",. c #EB2F34",
"<. c #E03336",
"1. c #E53838",
"2. c #F13F39",
"3. c #B6462E",
"4. c #BF4931",
"5. c #D34E2F",
"6. c #C9542E",
"7. c #D64233",
"8. c #DF4D3B",
"9. c #D45431",
"0. c #E54B36",
"q. c #E05738",
"w. c #DB6933",
"e. c #E3643C",
"r. c #E16F32",
"t. c #822943",
"y. c #8A2B44",
"u. c #962940",
"i. c #803540",
"p. c #E43A48",
"a. c #DF4A4E",
"s. c #EB4C4C",
"d. c #F44949",
"f. c #E87942",
"g. c #EB656B",
"h. c #3C843A",
"j. c #3B8A3D",
"k. c #36823B",
"l. c #488738",
"z. c #598C32",
"x. c #5A9D3F",
"c. c #639738",
"v. c #54A23D",
"b. c #6DAC3E",
"n. c #64A539",
"m. c #5E824D",
"M. c #65824F",
"N. c #69854E",
"B. c #6C8A54",
"V. c #678652",
"C. c #708955",
"Z. c #6F9054",
"A. c #769957",
"S. c #779F58",
"D. c #7C9D5A",
"F. c #759356",
"G. c #7CBB40",
"H. c #78A058",
"J. c #E68C3B",
"K. c #EB873C",
"L. c #82A45D",
"P. c #88A55F",
"I. c #86B261",
"U. c #88B663",
"Y. c #99B864",
"T. c #A0BD66",
"R. c #E98C4A",
"E. c #EC9C4B",
"W. c #F79268",
"Q. c #94CB45",
"!. c #9DC267",
"~. c #A4C669",
"^. c #A5C96B",
"/. c #AECE6C",
"(. c #A4C568",
"). c #B0CF6D",
"_. c #AFD06D",
"`. c #B1D16D",
"'. c #B4D86F",
"]. c #B7D770",
"[. c #BAD770",
"{. c #B7D970",
"}. c #BADB71",
"|. c #C2E274",
" X c #C8EA77",
".X c #F3C786",
/* pixels */
"`.`.`.`.`.`.`.`.`.`.`.`.`.`.`.`.`.`.`.`.`.`.`.`.`.`.`.`.`.`.`.`.",
"`.`.`.`.`.`.`.`.`.`.`.`.`.`.`.`.`.`.`.`.`.`.`.`.`.`.`.`.`.`.`.`.",
"`.`.`.`.`.`.`.`.`.`.`.`.`.`._.`.'.`._.`.`.`.`.`.`.`.`.`.`.`.`.`.",
"`.`.`.`.`.`.`.`.`.`.`.`.`._.`./.Y./.'._.`.`.`.`.`.`.`.`.`.`.`.`.",
"`.`.`.`.`.`.`.`.`.`./././.`./.N.i D ^.`._.`.`.`.`.`.`.`.`.`.`.`.",
"`.`.`.`.`.`.`.`.`.`.}.}.'.{.L.n Q.w K }./._.`.`.`.`.`.`.`.`.`.`.",
"`.`.`.`.`.`.`./.'.Y.D D F.|.L.M x.p T.'./.'.`.`.`.`.`.`.`.`.`.`.",
"`.`.`.`.`.`.`./.{.P.u n.m V C.l c D }.F a i Y.'./.`.`.`.`.`.`.`.",
"`.`.`.`.`.`.`././. XM.k v.l.r p k V G z.n.i Y.'./.`.`.`.`.`.`.`.",
"`.`.`.`.`.`./.'.].B.G l j j.c k j + l.n.y B. X/.`.`.`.`.`.`.`.`.",
"`.`.`.`.`./.{.P.Z m c.b.x t f h g c k.g p l F ^.'./.`.`.`.`.`.`.",
"`.`.`.`.`.`.`.~.i u j.z p c.c.h x b.b.g x h.t G /.`.`.`.`.`.`.`.",
"`.`.`.`.`./.`._.v > # @ b Q.h.r $ h.G.l.o d z q J }./.`.`.`.`.`.",
"`.`.`.`.`.`./.F P 1.d.[ b x e 3 W * d g X . ,   m.|./.`.`.`.`.`.",
"`.`.`.`./.[.I.< 1.R.s.#.o , 5 &.$.` 4 O @ 4.| 8 C Y.'./.`.`.`.`.",
"`.`.`.`./.[.U.6 2.J.s.a.| &.%.f.e.%.*.` W 5.R Q - S.}./.`.`.`.`.",
"`.`.`.`./.[.U.6 ,.:.g..XW.1.>.e.q.%.8.1.@.[ R 9 % L.{./.`.`.`.`.",
"`.`.`.`./.[.I.< *.*.p.E.R.p.>.&.*.>.K.e.U ` 3.i.= H.}./.`.`.`.`.",
"`.`.`.`.`.`.^.A Y 0.e.>.0.<.f.<.<.*.o.-.+.T ! B S (.`._.`.`.`.`.",
"`.`.`.`.`./.|.V.; 0.w.%.>.1.J.<.:.$.+.{ / 8 7 : m.|./.`.`.`.`.`.",
"`.`.`.`.`./.{.A.1 { +.$.7.*.$.*.;.w... .6.3 y.2 Z.{./.`.`.`.`.`.",
"`.`.`.`.`.`./.}.a L @.7.r.=.*.@.#.o.+.' ! 9 N M.{./.`.`.`.`.`.`.",
"`.`.`.`.`.`.).'.D., ^ #._ ..;.9.@.[ _ ! 1 B & ^.`.`.`.`.`.`.`.`.",
"`.`.`.`.`.`.`.).{.D.< ' } +.O.5.+.` ) 0 t.1 A.`.`.`.`.`.`.`.`.`.",
"`.`.`.`.`.`.`.`./.}.B.; 9.3.I ' ( 8 1 u.7 Z.}.`.`.`.`.`.`.`.`.`.",
"`.`.`.`.`.`.`.`.`./.{.H 5 ] T ^ ~ 6 u.N M.{./.`.`.`.`.`.`.`.`.`.",
"`.`.`.`.`.`.`.`.`._.`.`.Z . 8 E E 3 = H '.).`.`.`.`.`.`.`.`.`.`.",
"`.`.`.`.`.`.`.`.`.`./.'.~.L.s & @ A I./.`._.`.`.`.`.`.`.`.`.`.`.",
"`.`.`.`.`.`.`.`.`.`.`./.`.{.~.!.!.^.}.`._.`.`.`.`.`.`.`.`.`.`.`.",
"`.`.`.`.`.`.`.`.`.`.`.`._./.`.'.'.`./.`.`.`.`.`.`.`.`.`.`.`.`.`.",
"`.`.`.`.`.`.`.`._.`.`.`.`.`._._._.`.`.`.`.`.`.`.`.`.`.`.`.`.`.`.",
"`.`.`.`.`.`.`.`.`.`.`.`.`.`.`.`.`.`.`.`.`.`.`.`.`.`.`.`.`.`.`.`."
};
