/* XPM */
static char *_5b2a08e6da54e54a5a0ae43434b8e4eIjIynSznzWA5KnSn[] = {
/* columns rows colors chars-per-pixel */
"32 32 175 2 ",
"   c #0E1A1D",
".  c #1F1E1A",
"X  c #281F1A",
"o  c #241D1B",
"O  c #371F1E",
"+  c #01231B",
"@  c #08261D",
"#  c #002C1C",
"$  c #0E2C1E",
"%  c #13221E",
"&  c #132C1F",
"*  c #192D1F",
"=  c #1C231D",
"-  c #02321F",
";  c #003B1B",
":  c #25221C",
">  c #2A241E",
",  c #252C1F",
"<  c #2D2C1F",
"1  c #322C1F",
"2  c #34251E",
"3  c #29321F",
"4  c #23321F",
"5  c #0A2B20",
"6  c #013721",
"7  c #083622",
"8  c #033B21",
"9  c #083820",
"0  c #103420",
"q  c #143D21",
"w  c #202B20",
"e  c #322720",
"r  c #342920",
"t  c #41221E",
"y  c #4F221F",
"u  c #412A1F",
"i  c #5D261F",
"p  c #462F20",
"a  c #4C2A21",
"s  c #502F21",
"d  c #582D21",
"f  c #433D23",
"g  c #453321",
"h  c #632C21",
"j  c #712F20",
"k  c #663221",
"l  c #6C3221",
"z  c #643B24",
"x  c #6E3923",
"c  c #723322",
"v  c #7E3B23",
"b  c #02421E",
"n  c #024A1D",
"m  c #0B4C1D",
"M  c #03541F",
"N  c #075A1D",
"B  c #054422",
"V  c #0A4222",
"C  c #044C22",
"Z  c #0B4C22",
"A  c #164329",
"S  c #1D4E2F",
"D  c #1A4627",
"F  c #055422",
"G  c #0B5423",
"H  c #0B5C23",
"J  c #065D24",
"K  c #115C24",
"L  c #125226",
"P  c #255E2E",
"I  c #2C5533",
"U  c #335C37",
"Y  c #375E39",
"T  c #0D6423",
"R  c #0E6C22",
"E  c #136425",
"W  c #186525",
"Q  c #156A25",
"!  c #1D6D26",
"~  c #1C662D",
"^  c #167225",
"/  c #1B7426",
"(  c #1D7B25",
")  c #1C7628",
"_  c #1F7B29",
"`  c #227627",
"'  c #217B27",
"]  c #217429",
"[  c #237C28",
"{  c #297A2A",
"}  c #2D6833",
"|  c #326335",
" . c #376539",
".. c #3C643B",
"X. c #356C38",
"o. c #3E6C3C",
"O. c #266928",
"+. c #4D4723",
"@. c #554C27",
"#. c #7A4426",
"$. c #40603A",
"%. c #436C3F",
"&. c #4C693E",
"*. c #4E6F40",
"=. c #4B7442",
"-. c #4F7A43",
";. c #567748",
":. c #813D25",
">. c #813423",
",. c #834024",
"<. c #864927",
"1. c #934626",
"2. c #984727",
"3. c #9B4926",
"4. c #92492A",
"5. c #9C4A28",
"6. c #944926",
"7. c #A24D27",
"8. c #AA522A",
"9. c #A75B2E",
"0. c #AD592C",
"q. c #B45B2D",
"w. c #BB612E",
"e. c #C4642F",
"r. c #C46730",
"t. c #C26931",
"y. c #CC6B32",
"u. c #DA7435",
"i. c #DD7B37",
"p. c #1D8029",
"a. c #218126",
"s. c #258228",
"d. c #2A862A",
"f. c #2D8B29",
"g. c #2E9029",
"h. c #36922C",
"j. c #3A952D",
"k. c #3E883B",
"l. c #4C9A3E",
"z. c #529F3F",
"x. c #43A330",
"c. c #55A23F",
"v. c #509B40",
"b. c #5E9F48",
"n. c #668A4F",
"m. c #6B9151",
"M. c #6D9C53",
"N. c #719554",
"B. c #7F9F5B",
"V. c #55A240",
"C. c #5CA841",
"Z. c #60AC42",
"A. c #65A54C",
"S. c #7BA45B",
"D. c #76A25A",
"F. c #82A35C",
"G. c #87A95F",
"H. c #92AD64",
"J. c #93B464",
"K. c #9ABC68",
"L. c #A0BF6B",
"P. c #A5C56D",
"I. c #A9CC6F",
"U. c #ADCD71",
"Y. c #B4D574",
"T. c #B9D777",
"R. c #B7D876",
"E. c #B8D976",
"W. c #B9D977",
"Q. c #BAD778",
"!. c #BEDE79",
"~. c #BBDA78",
"^. c #C0DF7A",
"/. c #C1E27B",
"(. c #C2E37C",
/* pixels */
"Y.Y.Y.Y.Y.Y.Y.Y.Y.Y.Y.Y.Y.Y.Y.Y.Y.Y.Y.Y.Y.Y.Y.Y.Y.Y.Y.Y.Y.Y.Y.Y.",
"Y.Y.Y.Y.Y.Y.Y.Y.Y.Y.Y.Y.Y.Y.Y.Y.Y.Y.Y.Y.Y.Y.Y.Y.Y.Y.Y.Y.Y.Y.Y.Y.",
"Y.Y.Y.Y.Y.Y.Y.Y.Y.Y.Y.Y.Y.Y.Y.Y.Y.Y.Y.Y.Y.Y.Y.Y.Y.Y.Y.Y.Y.Y.Y.Y.",
"Y.Y.Y.Y.Y.Y.Y.Y.Y.Y.Y.Y.Y.Y.Y.W.!.Y.Y.Y.Y.Y.Y.Y.Y.Y.Y.Y.Y.Y.Y.Y.",
"Y.Y.Y.Y.Y.Y.Y.Y.Y.Y.Y.Y.W.Y./.N...Y.R.Y.W.Y.Y.Y.Y.Y.Y.Y.Y.Y.Y.Y.",
"Y.Y.Y.Y.Y.Y.Y.Y.Y.Y.!.!.%.o.B.O.Q A n.I.%.U.W.Y.Y.Y.Y.Y.Y.Y.Y.Y.",
"Y.Y.Y.Y.Y.Y.Y.Y.Y.Y.J.;.n F 8 / x.N ..o.n =.U.P.Y.Y.Y.Y.Y.Y.Y.Y.",
"Y.Y.Y.Y.Y.Y.Y.Y.Y.m.Z b { d.F C / s.C / ` I U F./.Y.Y.Y.Y.Y.Y.Y.",
"Y.Y.Y.Y.Y.Y.Y.W.U.q f.h.H ! _ / G H [ h.B B H  .U.Y.Y.Y.Y.Y.Y.Y.",
"Y.Y.Y.Y.Y.Y.W.Y.%.H G E / Q J d.Q C f./ Z s.W # I Y.Y.Y.Y.Y.Y.Y.",
"Y.Y.Y.Y.Y.Y.U.=.Q f.G G ' q $ $ & $ 6 B ' F Z / V H./.Y.Y.Y.Y.Y.",
"Y.Y.Y.Y.Y./.B.; ) E 8 $ 1 k 4.4.4.x < w B G f.W F P J.W.Y.Y.Y.Y.",
"Y.Y.Y.Y.Y.U.| ! G 8 > #.y.y.e.e.e.u.8.j e B G H ) ; &.(.Y.Y.Y.Y.",
"Y.Y.Y.Y.Y.Y.-.E Z O 5.u.9.f , 3 4 @.w.t.v > 8 / b D K.R.Y.Y.Y.Y.",
"Y.Y.Y.Y.W.P.P H - v i.q., - F F C - f y.8.s - B B K n.!.Y.Y.Y.Y.",
"Y.Y.Y.Y.W.P.A - p y.t.g 6 / d.H ` G 8 z r.v = B Q # &./.Y.Y.Y.Y.",
"Y.Y.Y.Y.Y.!.S.+ <.u.z ; E j.^ ^ h.Q H 5 3.2.2 - 8 7 N.!.Y.Y.Y.Y.",
"Y.Y.Y.Y.Y.^.D.X q.w.u F d.h.T ^ j.( / - 6.0.i * + U /.Y.Y.Y.Y.Y.",
"Y.Y.Y.Y.Y.^.S.. q.3.: ] f.[ F [ s./ f.- :.q.c a + U !.Y.Y.Y.Y.Y.",
"Y.Y.Y.Y.R.U.S : 1.3.> Q ' [ C d.( Q a.8 v 7.h y * - m./.Y.Y.Y.Y.",
"Y.Y.Y.Y.Y.J.- 1 0.3.: Q / [ F d./ E d.9 c 1.l % B b $.Y.Y.Y.Y.Y.",
"Y.Y.Y.Y.!.| T r 8.:.o E / ` C s.E E ' - l >.t @ E G - F.(.Y.Y.Y.",
"Y.Y.Y.W.G.A F % ,.c o K / ` C / T H / - u +.% B K Q C Y U.Y.Y.Y.",
"Y.Y.Y.(.*.m G 6 d h   K E W 8 / Z G ! + q J # / ^ G # %.U.Y.Y.Y.",
"Y.Y.!.F.L ^ _ C 0 D B Z V Z 8 V 8 V V 6 6 8 G p.K # b } L.W.Y.Y.",
"Y.Y.Y.U.b.d.a.( ( g.( ( / f.^ / ( d.Q R M M T n # V ~ M.Y.Y.Y.Y.",
"Y.Y.Y.R.W.I.v.c.c.l.z.c.l.l.l.Z.V.c.C.l.l.k.X.U | A.T.Y.Y.Y.Y.Y.",
"Y.Y.Y.Y.Y.Y.Q.Q.Q.Q.Q.Q.Q.Q.Q.T.Q.Q.Q.Q.Q.~.!.!.!.W.Y.Y.Y.Y.Y.Y.",
"Y.Y.Y.Y.Y.Y.Y.Y.Y.Y.Y.Y.Y.Y.Y.Y.Y.Y.Y.Y.Y.Y.Y.Y.Y.Y.Y.Y.Y.Y.Y.Y.",
"Y.Y.Y.Y.Y.Y.Y.Y.Y.Y.Y.Y.Y.Y.Y.Y.Y.Y.Y.Y.Y.Y.Y.Y.Y.Y.Y.Y.Y.Y.Y.Y.",
"Y.Y.Y.Y.Y.Y.Y.Y.Y.Y.Y.Y.Y.Y.Y.Y.Y.Y.Y.Y.Y.Y.Y.Y.Y.Y.Y.Y.Y.Y.Y.Y.",
"Y.Y.Y.Y.Y.Y.Y.Y.Y.Y.Y.Y.Y.Y.Y.Y.Y.Y.Y.Y.Y.Y.Y.Y.Y.Y.Y.Y.Y.Y.Y.Y."
};
