/* XPM */
static char *_bd4f1a384ab403893b70336ad10d86c2w5w8mBsiiOAXSyY[] = {
/* columns rows colors chars-per-pixel */
"32 32 155 2 ",
"   c #070415",
".  c #140415",
"X  c #1F1C1E",
"o  c #230F19",
"O  c #381D1E",
"+  c #04211F",
"@  c #3C221F",
"#  c #1F2122",
"$  c #192C30",
"%  c #222E26",
"&  c #342020",
"*  c #352826",
"=  c #2B3029",
"-  c #3C3329",
";  c #303A2D",
":  c #373629",
">  c #212C32",
",  c #302F30",
"<  c #47251E",
"1  c #502A1E",
"2  c #55211E",
"3  c #7B2F17",
"4  c #76301E",
"5  c #512621",
"6  c #5B2B21",
"7  c #433026",
"8  c #43392B",
"9  c #543526",
"0  c #762E21",
"q  c #713022",
"w  c #7D3924",
"e  c #693531",
"r  c #30442D",
"t  c #314533",
"y  c #43422D",
"u  c #424933",
"i  c #404F3A",
"p  c #424534",
"a  c #475A3C",
"s  c #515739",
"d  c #5A5333",
"f  c #69402B",
"g  c #714928",
"h  c #7E423B",
"j  c #57683F",
"k  c #564D48",
"l  c #505D42",
"z  c #4D5B53",
"x  c #486C45",
"c  c #5B6B44",
"v  c #5D684C",
"b  c #626F43",
"n  c #667F4B",
"m  c #677B46",
"M  c #7F7973",
"N  c #767978",
"B  c #737773",
"V  c #853113",
"C  c #98381E",
"Z  c #AC3D1D",
"A  c #81461F",
"S  c #8C461C",
"D  c #964E1D",
"F  c #98491C",
"G  c #A5471F",
"H  c #B15D1E",
"J  c #8D4020",
"K  c #91412A",
"L  c #985929",
"P  c #A74522",
"I  c #AB4422",
"U  c #B14722",
"Y  c #BE5421",
"T  c #AA5737",
"R  c #B76429",
"E  c #B96426",
"W  c #C6571F",
"Q  c #C9551C",
"!  c #C7681F",
"~  c #DF6615",
"^  c #D76D1F",
"/  c #E26D1D",
"(  c #E16912",
")  c #E8751E",
"_  c #F0771C",
"`  c #C65B22",
"'  c #D45E22",
"]  c #D36222",
"[  c #DD6E22",
"{  c #D56C2D",
"}  c #D66D25",
"|  c #DA702B",
" . c #E17323",
".. c #E77821",
"X. c #ED7925",
"o. c #E27828",
"O. c #E2742F",
"+. c #F47D22",
"@. c #F87F23",
"#. c #87745E",
"$. c #B27D5B",
"%. c #C37758",
"&. c #6F8846",
"*. c #66814C",
"=. c #748E51",
"-. c #7B9454",
";. c #7E9A57",
":. c #F9822B",
">. c #829652",
",. c #829D58",
"<. c #819B56",
"1. c #8AA35A",
"2. c #84A45C",
"3. c #96B05C",
"4. c #B6916D",
"5. c #EE9B58",
"6. c #F8A34F",
"7. c #A7C368",
"8. c #ABC669",
"9. c #ADCC6C",
"0. c #A9C362",
"q. c #B1CC6B",
"w. c #B6D26D",
"e. c #B5D570",
"r. c #BCD770",
"t. c #BFDA71",
"y. c #C2DD72",
"u. c #C6E174",
"i. c #CAE576",
"p. c #CDE877",
"a. c #CAE778",
"s. c #CFEA79",
"d. c #D0EB7A",
"f. c #D8F47C",
"g. c #888989",
"h. c #C39F8A",
"j. c #C1A187",
"k. c #D5A98A",
"l. c #E9BD9B",
"z. c #C6BFAE",
"x. c #F9C698",
"c. c #D3C8AE",
"v. c #CEC9B9",
"b. c #D2CBB5",
"n. c #EDC4AB",
"m. c #F8D2AB",
"M. c #FADAB2",
"N. c #D9D8C8",
"B. c #DAD2C1",
"V. c #EDE1CB",
"C. c #F4E6D1",
"Z. c #F6EAD1",
"A. c #FFFFDD",
"S. c #FDFAE7",
"D. c #FCFDEC",
/* pixels */
"t.t.t.t.t.t.t.t.t.t.t.t.t.t.t.t.t.t.t.t.t.t.t.t.t.t.t.t.t.t.t.t.",
"t.t.t.t.t.t.t.t.t.t.t.t.t.t.t.t.t.t.t.t.t.t.t.t.t.t.t.t.t.t.t.t.",
"t.t.t.t.t.t.t.t.t.t.t.t.t.t.t.t.t.t.t.t.t.t.t.t.t.t.t.t.t.t.t.t.",
"t.t.t.t.t.t.t.t.t.t.t.t.t.t.t.t.t.t.t.t.t.t.t.t.t.t.t.t.t.t.t.t.",
"t.t.t.t.t.t.t.t.t.t.t.t.t.t.t.t.t.t.t.t.t.t.t.t.t.t.t.t.t.t.t.t.",
"t.t.t.t.t.t.t.t.t.t.t.t.t.t.t.t.t.t.t.t.t.t.t.t.t.t.t.t.t.t.t.t.",
"t.t.t.t.t.t.t.t.t.t.t.t.t.t.t.t.t.t.t.t.t.t.t.t.t.t.t.t.t.t.t.t.",
"t.t.t.t.t.t.t.t.t.t.t.t.t.t.t.t.t.u.u.t.t.t.y.y.t.t.t.t.t.t.t.t.",
"t.t.t.t.t.t.t.t.t.t.t.t.t.t.t.y.u.j j y.t.u.9.w.t.t.t.t.t.t.t.t.",
"t.t.t.t.t.t.t.t.t.t.t.t.t.t.y.u.b e p u.u.-.7 ; 8.y.t.t.t.t.t.t.",
"t.t.t.t.t.y.u.y.y.y.t.t.t.t.t.c 3 l.k 3.,.A G X 7.y.t.t.t.t.t.t.",
"t.t.t.r.i.1.t c 0.9.y.t.t.y.9.* Q x.h % 9 J X n u.t.t.t.t.t.t.t.",
"t.t.t.r.s.m g.v.z 8 >.a.r.y.q.- Y { } [  .` 2 n y.t.t.t.t.t.t.t.",
"t.t.t.r.d.m g.D.D.n.f <.i.y.e.- ] ) _ H ! ^ 4 & 9.u.t.t.t.t.t.t.",
"t.t.t.t.y.q.l z.m.5.O.1 2.s.c H _  .:.g L o.R w a y.t.t.t.t.t.t.",
"t.t.t.t.r.p.n #.{ ( +.F c f.m E 6.M.C.V.V.Z.A.k r u.t.t.t.t.t.t.",
"t.t.t.t.t.t.t.- Z [ ..' < x *.$ M B.D.S.S.N.N v w.y.t.t.t.t.t.t.",
"t.t.t.t.t.t.y.>.6 U ] P q S D D V T %.k.c.v &.q.u.t.t.t.t.t.t.t.",
"t.t.t.t.t.t.t.i.;.5 0 w ] @.@.+.X.~ | C.b.i s.y.t.t.t.t.t.t.t.t.",
"t.t.t.t.t.t.t.r.i.;.# Y +.[ / / [ X.x.D.h.u t.t.t.t.t.t.t.t.t.t.",
"t.t.t.t.t.t.t.t.t.y.y Q ` K 4.$.W ` B j.C y t.t.t.t.t.t.t.t.t.t.",
"t.t.t.t.t.t.t.t.y.e.y I O % > , I < + @ C u t.t.t.t.t.t.t.t.t.t.",
"t.t.t.t.t.t.t.t.y.t.= . t q.d   o s 8.t   ; y.t.t.t.t.t.t.t.t.t.",
"t.t.t.t.t.t.t.t.t.t.1.=.8.p.9.-.-.q.p.8.=.1.y.t.t.t.t.t.t.t.t.t.",
"t.t.t.t.t.t.t.t.t.t.i.p.y.r.y.p.p.y.r.y.p.i.t.t.t.t.t.t.t.t.t.t.",
"t.t.t.t.t.t.t.t.t.t.r.r.t.t.t.r.r.t.t.t.r.r.t.t.t.t.t.t.t.t.t.t.",
"t.t.t.t.t.t.t.t.t.t.t.t.t.t.t.t.t.t.t.t.t.t.t.t.t.t.t.t.t.t.t.t.",
"t.t.t.t.t.t.t.t.t.t.t.t.t.t.t.t.t.t.t.t.t.t.t.t.t.t.t.t.t.t.t.t.",
"t.t.t.t.t.t.t.t.t.t.t.t.t.t.t.t.t.t.t.t.t.t.t.t.t.t.t.t.t.t.t.t.",
"t.t.t.t.t.t.t.t.t.t.t.t.t.t.t.t.t.t.t.t.t.t.t.t.t.t.t.t.t.t.t.t.",
"t.t.t.t.t.t.t.t.t.t.t.t.t.t.t.t.t.t.t.t.t.t.t.t.t.t.t.t.t.t.t.t.",
"t.t.t.t.t.t.t.t.t.t.t.t.t.t.t.t.t.t.t.t.t.t.t.t.t.t.t.t.t.t.t.t."
};
