/* XPM */
static char *bae3a96540224022992c365508c6ab45W0wt5lETqB9G1TqV[] = {
/* columns rows colors chars-per-pixel */
"32 32 202 2 ",
"   c #2B191C",
".  c #321B1D",
"X  c #3B1C1C",
"o  c #3A201E",
"O  c #3A2923",
"+  c #421619",
"@  c #421D1D",
"#  c #4A1E1D",
"$  c #7E1F1C",
"%  c #61151A",
"&  c #4C221E",
"*  c #41221E",
"=  c #59271E",
"-  c #54201E",
";  c #65251F",
":  c #662B1C",
">  c #7F221D",
",  c #7C371D",
"<  c #482822",
"1  c #542A22",
"2  c #5A2A22",
"3  c #582120",
"4  c #6B2621",
"5  c #6C2E23",
"6  c #792A21",
"7  c #6B3223",
"8  c #643023",
"9  c #713324",
"0  c #783829",
"q  c #1A4622",
"w  c #274B23",
"e  c #265428",
"r  c #365028",
"t  c #377036",
"y  c #7F422E",
"u  c #7F4632",
"i  c #7A5538",
"p  c #45622D",
"a  c #7E6239",
"s  c #716340",
"d  c #7D7F4D",
"f  c #88271E",
"g  c #912718",
"h  c #99341F",
"j  c #A4341D",
"k  c #AB381D",
"l  c #B23C1D",
"z  c #B93C1B",
"x  c #A72916",
"c  c #832D21",
"v  c #8B2C22",
"b  c #822620",
"n  c #902E21",
"m  c #813527",
"M  c #8C3021",
"N  c #933921",
"B  c #A83B22",
"V  c #C23818",
"C  c #BB441B",
"Z  c #BD491D",
"A  c #B4451C",
"S  c #A9461D",
"D  c #8A462A",
"F  c #9C4B2B",
"G  c #874531",
"H  c #9C4C30",
"J  c #825D3D",
"K  c #93592A",
"L  c #A14E2B",
"P  c #B94825",
"I  c #AC542C",
"U  c #B95728",
"Y  c #AB5531",
"T  c #9E653E",
"R  c #A8673C",
"E  c #B16336",
"W  c #B2663A",
"Q  c #B66938",
"!  c #B4733E",
"~  c #BA7A3C",
"^  c #C1461A",
"/  c #CC461A",
"(  c #CF4E1A",
")  c #C54D1E",
"_  c #D14F1B",
"`  c #D64A18",
"'  c #C7511D",
"]  c #CE541F",
"[  c #CC5D1F",
"{  c #C65F1E",
"}  c #D4551B",
"|  c #DA5E1C",
" . c #D7591D",
".. c #E35C1B",
"X. c #CD661F",
"o. c #D9651F",
"O. c #E46C1F",
"+. c #E96A1F",
"@. c #E2651D",
"#. c #ED711F",
"$. c #E5711C",
"%. c #C14D21",
"&. c #CB5924",
"*. c #D55720",
"=. c #CE6A28",
"-. c #D66C22",
";. c #D86423",
":. c #DD7C2C",
">. c #C77638",
",. c #E46820",
"<. c #E37521",
"1. c #EC7B22",
"2. c #E67722",
"3. c #F27D21",
"4. c #926C43",
"5. c #8A7045",
"6. c #98794A",
"7. c #AB7847",
"8. c #B57844",
"9. c #5B9B3C",
"0. c #4C8C3C",
"q. c #63A03B",
"w. c #698245",
"e. c #65A541",
"r. c #6BAB41",
"t. c #74AC43",
"y. c #DE802C",
"u. c #D08B3E",
"i. c #E58324",
"p. c #ED8423",
"a. c #E68A26",
"s. c #E88429",
"d. c #F28D26",
"f. c #F48525",
"g. c #EE9B29",
"h. c #EB9229",
"j. c #F49326",
"k. c #F69529",
"l. c #F49B2A",
"z. c #F69526",
"x. c #EA9C31",
"c. c #EAA22E",
"v. c #F6A42A",
"b. c #F7AD2B",
"n. c #FAAC2B",
"m. c #F8A52A",
"M. c #FCBB2D",
"N. c #FAB32E",
"B. c #F7B632",
"V. c #FDC534",
"C. c #FFC933",
"Z. c #FDCC3B",
"A. c #FDD038",
"S. c #8B834F",
"D. c #9E834E",
"F. c #9F8D54",
"G. c #8A9557",
"H. c #9C9C5B",
"J. c #AB854E",
"K. c #B3894E",
"L. c #AC8A52",
"P. c #B18E51",
"I. c #AB9959",
"U. c #B59955",
"Y. c #93A35F",
"T. c #86BA53",
"R. c #B6A45C",
"E. c #A7A65E",
"W. c #97B065",
"Q. c #ADAA63",
"!. c #B4AA61",
"~. c #A6B969",
"^. c #B4B366",
"/. c #BFBB66",
"(. c #B3BB6A",
"). c #BABC69",
"_. c #C28842",
"`. c #C39653",
"'. c #C1B964",
"]. c #CDAB52",
"[. c #ADC66C",
"{. c #B2C46E",
"}. c #BAC46E",
"|. c #BAC96F",
" X c #B7C86F",
".X c #B3D06F",
"XX c #A8CF71",
"oX c #B6CB72",
"OX c #BCCF73",
"+X c #B9C771",
"@X c #AAD272",
"#X c #BED677",
"$X c #BFD877",
"%X c #BCD578",
"&X c #BEDA79",
"*X c #C6CA6D",
"=X c #C2DB79",
"-X c #C0D777",
";X c #C2E37D",
":X c #CAE57D",
">X c #BEEB84",
",X c #C4EC82",
/* pixels */
"#X#X#X#X#X#X#X#X#X#X#X#X#X#X#X#X#X#X#X#X#X#X#X#X#X#X#X#X#X#X#X#X",
"#X#X#X#X#X#X#X#X#X#X#X#X#X#X#X#X#X#X#X#X#X#X#X#X#X#X#X#X#X#X#X#X",
"#X#X#X#X#X#X#X#X#X#X#X#X#X#X&X;X;X#X#X#X#X#X#X#X#X#X#X#X#X#X#X#X",
"#X#X#X#X#X#X#X#X#X#X#X#X;X;X^.7.K.#X&X#X#X#X#X#X#X#X#X#X#X#X#X#X",
"#X#X#X#X#X#X#X#X#X#X&X#XK.!.].i.:./.W OX&X#X#X#X#X#X#X#X#X#X#X#X",
"#X#X#X#X#X#X#X#X#X&X#X).U i.y.C.Z.l.x.R.W OX&X&X#X#X#X#X#X#X#X#X",
"#X#X#X#X#X#X#X#X#X}.Q h.B.Z.b.Z.V.n.B.&.} ! #X}.#X#X#X#X#X#X#X#X",
"#X#X#X#X#X#X#X#X,XJ.c.V.l.Z.A.N.k.N.k.1.2.W 8.K.,X#X#X#X#X#X#X#X",
"#X#X#X#X#X#X&X|.U.R.:.V.V.b.M.f.k.d.n.l.,.&.( u.+X#X#X#X#X#X#X#X",
"#X#X#X#X#X#X&X'.' [ o.2.g.b.1.j.h.;.a.d.1.g.#.C I.,X#X#X#X#X#X#X",
"#X#X#X#X#X=X%X_.M.M.f.<.} [ =.C.i.*.a.v.,.p. .j R P.OX&X#X#X#X#X",
"#X#X#X#X$X#X! i.m.b.v.j.| ^ X.a.l.p.i.O..._ P ] } B OX&X#X#X#X#X",
"#X#X#X#X#X#XU.&.p.M.v.#.3.;.C @.d.O.` +.p.l ] | %.Z 7.&X#X#X#X#X",
"#X#X#X#X&XOX~ <.@.-.<.l.1.Z v -.o.j O.z.1. .( | ' z H &X#X#X#X#X",
"#X#X#X#X&XE $.n.z.l.3.2.N j : , : S f.1.@.| } j c 5 (.&X#X#X#X#X",
"#X#X#X#X&XE _ ) p.d.+.A # n ;     { ] h } ^ C l 3 0 }.&X#X#X#X#X",
"#X#X#X#X&X}.B ` / ..B v = & - * < M 4 & A v f Z N g G &X#X#X#X#X",
"#X#X#X#X&XOXY l k C C 6 @ 1 . 2 1 ; @ o X 4 c 6 6 0 J #X#X#X#X#X",
"#X#X#X#X#X=X(.f k f z B 6 + 2 0 1 . 1 & 4 M h % 0 }.=X#X#X#X#X#X",
"#X#X#X#X#X;X|.6.G u 0 $ m i & F 8 X + b f f G 4.^.=X#X#X#X#X#X#X",
"#X#X#X#X$XD.oX,X^.).H.4 H.W.@ F 7 O 6.y 5.0 ).,X&X#X#X#X#X#X#X#X",
"#X#X#X#X$XQ.Y >.&X=X=X~.:XY.= L 2 O oX{.%X~.#X{.J.).&X#X#X#X#X#X",
"#X#X#X#X$X-X=.` Q OX#X=X=XY.7 I 5 < {.=X#X&X8.g F.=X#X#X#X#X#X#X",
"#X#X#X#X#X&X}.E U Q.,X}.:X~.7 I 9 O %X#X&XR.V P !.=X#X#X#X#X#X#X",
"#X#X#X#X#X#X#X=X>X/.I.J. Xd 9 I 9 < G.=X&X*XQ ^.,X#X#X#X#X#X#X#X",
"#X#X#X#X#X#X=X(.P.s.x OX~.X I U 7 7 X G.*XI.,XU.L.#X;X#X#X#X#X#X",
"#X#X#X#X#X#X=XoX>.` `.OXs 0 7 D 2 2 9 . S.L.T V / W 6.&X#X#X#X#X",
"#X#X#X#X=XT.9.w.a r 0.t w r q e w q r q e t w D K p E.=X#X#X#X#X",
"#X#X#X#X#X.XXX[.{.XXt.q.r.r.t.e.e.e.e.e.e.9.T.oX{.@X=X#X#X#X#X#X",
"#X#X#X#X#X=X=X=X=X=X=X=X=X=X=X=X=X=X=X=X=X=X=X=X=X=X#X#X#X#X#X#X",
"#X#X#X#X#X#X#X#X#X#X#X#X#X#X#X#X#X#X#X#X#X#X#X#X#X#X#X#X#X#X#X#X",
"#X#X#X#X#X#X#X#X#X#X#X#X#X#X#X#X#X#X#X#X#X#X#X#X#X#X#X#X#X#X#X#X"
};
